<svg xmlns="http://www.w3.org/2000/svg" xmlns:xlink="http://www.w3.org/1999/xlink" width="500" zoomAndPan="magnify" viewBox="0 0 375 374.999991" height="500" preserveAspectRatio="xMidYMid meet" version="1.0"><defs><filter x="0%" y="0%" width="100%" height="100%" id="84ae4f038d"><feColorMatrix values="0 0 0 0 1 0 0 0 0 1 0 0 0 0 1 0 0 0 1 0" color-interpolation-filters="sRGB"/></filter><clipPath id="d4b1877eb3"><path d="M 24.101562 56 L 351.101562 56 L 351.101562 356.953125 L 24.101562 356.953125 Z M 24.101562 56 " clip-rule="nonzero"/></clipPath><mask id="dfcc2a3983"><g filter="url(#84ae4f038d)"><rect x="-37.5" width="450" fill="#000000" y="-37.499999" height="449.999989" fill-opacity="0.25"/></g></mask><clipPath id="16c6906bf3"><path d="M 0.101562 121 L 48 121 L 48 182 L 0.101562 182 Z M 0.101562 121 " clip-rule="nonzero"/></clipPath><clipPath id="e38267fed2"><path d="M 0.101562 237 L 327 237 L 327 300.953125 L 0.101562 300.953125 Z M 0.101562 237 " clip-rule="nonzero"/></clipPath><clipPath id="a657cea530"><path d="M 0.101562 0.398438 L 327 0.398438 L 327 99 L 0.101562 99 Z M 0.101562 0.398438 " clip-rule="nonzero"/></clipPath><clipPath id="fa1fad1665"><rect x="0" width="328" y="0" height="301"/></clipPath><mask id="ae294f0218"><g filter="url(#84ae4f038d)"><rect x="-37.5" width="450" fill="#000000" y="-37.499999" height="449.999989" fill-opacity="0.5"/></g></mask><clipPath id="7651571559"><path d="M 0.800781 1 L 54.800781 1 L 54.800781 43.320312 L 0.800781 43.320312 Z M 0.800781 1 " clip-rule="nonzero"/></clipPath><clipPath id="90eb2ae8ac"><rect x="0" width="55" y="0" height="44"/></clipPath><mask id="2b259e88b8"><g filter="url(#84ae4f038d)"><rect x="-37.5" width="450" fill="#000000" y="-37.499999" height="449.999989" fill-opacity="0.5"/></g></mask><clipPath id="6bd7f88101"><path d="M 1 1 L 91.640625 1 L 91.640625 43.320312 L 1 43.320312 Z M 1 1 " clip-rule="nonzero"/></clipPath><clipPath id="f40e5316fd"><rect x="0" width="92" y="0" height="44"/></clipPath><mask id="d0f70ac51b"><g filter="url(#84ae4f038d)"><rect x="-37.5" width="450" fill="#000000" y="-37.499999" height="449.999989" fill-opacity="0.5"/></g></mask><clipPath id="41bf129561"><path d="M 0.761719 1 L 54.761719 1 L 54.761719 43.320312 L 0.761719 43.320312 Z M 0.761719 1 " clip-rule="nonzero"/></clipPath><clipPath id="6a68836f53"><rect x="0" width="55" y="0" height="44"/></clipPath><mask id="b4af3bfead"><g filter="url(#84ae4f038d)"><rect x="-37.5" width="450" fill="#000000" y="-37.499999" height="449.999989" fill-opacity="0.75"/></g></mask><clipPath id="3192cdfa85"><path d="M 0.0390625 1 L 240.519531 1 L 240.519531 140 L 0.0390625 140 Z M 0.0390625 1 " clip-rule="nonzero"/></clipPath><clipPath id="ffb58e8ae7"><rect x="0" width="241" y="0" height="141"/></clipPath><mask id="ba1cacb893"><g filter="url(#84ae4f038d)"><rect x="-37.5" width="450" fill="#000000" y="-37.499999" height="449.999989" fill-opacity="0.25"/></g></mask><clipPath id="5ecfc0e604"><path d="M 0.238281 1 L 54.71875 1 L 54.71875 55 L 0.238281 55 Z M 0.238281 1 " clip-rule="nonzero"/></clipPath><clipPath id="c36ebcaf12"><rect x="0" width="55" y="0" height="56"/></clipPath><mask id="6b2470cbb9"><g filter="url(#84ae4f038d)"><rect x="-37.5" width="450" fill="#000000" y="-37.499999" height="449.999989" fill-opacity="0.5"/></g></mask><clipPath id="bc1a1cb6d8"><path d="M 0.160156 1 L 26.800781 1 L 26.800781 27.398438 L 0.160156 27.398438 Z M 0.160156 1 " clip-rule="nonzero"/></clipPath><clipPath id="3f9a7d1937"><rect x="0" width="27" y="0" height="28"/></clipPath><mask id="4f6c9560fa"><g filter="url(#84ae4f038d)"><rect x="-37.5" width="450" fill="#000000" y="-37.499999" height="449.999989" fill-opacity="0.25"/></g></mask><clipPath id="484c6cf5d6"><path d="M 1 1 L 55.320312 1 L 55.320312 55 L 1 55 Z M 1 1 " clip-rule="nonzero"/></clipPath><clipPath id="d04f14e042"><rect x="0" width="56" y="0" height="56"/></clipPath><mask id="33c727abb8"><g filter="url(#84ae4f038d)"><rect x="-37.5" width="450" fill="#000000" y="-37.499999" height="449.999989" fill-opacity="0.5"/></g></mask><clipPath id="5f4bd3bc6a"><path d="M 1 1 L 27.398438 1 L 27.398438 27.398438 L 1 27.398438 Z M 1 1 " clip-rule="nonzero"/></clipPath><clipPath id="feeb0ed9d1"><rect x="0" width="28" y="0" height="28"/></clipPath><mask id="707ec6781a"><g filter="url(#84ae4f038d)"><rect x="-37.5" width="450" fill="#000000" y="-37.499999" height="449.999989" fill-opacity="0.5"/></g></mask><clipPath id="aa8e4a5cc5"><path d="M 81 1 L 137.441406 1 L 137.441406 90 L 81 90 Z M 81 1 " clip-rule="nonzero"/></clipPath><clipPath id="419816a6f3"><rect x="0" width="138" y="0" height="90"/></clipPath><mask id="d362c490ee"><g filter="url(#84ae4f038d)"><rect x="-37.5" width="450" fill="#000000" y="-37.499999" height="449.999989" fill-opacity="0.5"/></g></mask><clipPath id="cd24377ead"><path d="M 0.398438 1 L 99.519531 1 L 99.519531 99.839844 L 0.398438 99.839844 Z M 0.398438 1 " clip-rule="nonzero"/></clipPath><clipPath id="c253ba1c5e"><rect x="0" width="100" y="0" height="100"/></clipPath><mask id="afe330ba63"><g filter="url(#84ae4f038d)"><rect x="-37.5" width="450" fill="#000000" y="-37.499999" height="449.999989" fill-opacity="0.5"/></g></mask><clipPath id="617ed27b1e"><path d="M 0.359375 0.921875 L 13.800781 0.921875 L 13.800781 38 L 0.359375 38 Z M 0.359375 0.921875 " clip-rule="nonzero"/></clipPath><clipPath id="6f52f024af"><rect x="0" width="14" y="0" height="39"/></clipPath><clipPath id="e45c90cd8f"><path d="M 270 17.953125 L 287 17.953125 L 287 46 L 270 46 Z M 270 17.953125 " clip-rule="nonzero"/></clipPath><mask id="aeae6c0429"><g filter="url(#84ae4f038d)"><rect x="-37.5" width="450" fill="#000000" y="-37.499999" height="449.999989" fill-opacity="0.5"/></g></mask><clipPath id="6612b20ccb"><path d="M 0.480469 0.953125 L 16 0.953125 L 16 28 L 0.480469 28 Z M 0.480469 0.953125 " clip-rule="nonzero"/></clipPath><clipPath id="45a3b00327"><rect x="0" width="17" y="0" height="29"/></clipPath><mask id="21a8dee867"><g filter="url(#84ae4f038d)"><rect x="-37.5" width="450" fill="#000000" y="-37.499999" height="449.999989" fill-opacity="0.5"/></g></mask><clipPath id="2045e3dce9"><path d="M 0.121094 0.078125 L 28 0.078125 L 28 19 L 0.121094 19 Z M 0.121094 0.078125 " clip-rule="nonzero"/></clipPath><clipPath id="d93ab90d4e"><rect x="0" width="29" y="0" height="20"/></clipPath><mask id="397d53aa00"><g filter="url(#84ae4f038d)"><rect x="-37.5" width="450" fill="#000000" y="-37.499999" height="449.999989" fill-opacity="0.5"/></g></mask><clipPath id="f1cbf999dc"><path d="M 0.441406 0.679688 L 24.441406 0.679688 L 24.441406 21.558594 L 0.441406 21.558594 Z M 0.441406 0.679688 " clip-rule="nonzero"/></clipPath><clipPath id="fee593422e"><rect x="0" width="25" y="0" height="22"/></clipPath></defs><g clip-path="url(#d4b1877eb3)"><g mask="url(#dfcc2a3983)"><g transform="matrix(1, 0, 0, 1, 24, 56)"><g clip-path="url(#fa1fad1665)"><g clip-path="url(#16c6906bf3)"><path fill="#273755" d="M 0.121094 150.867188 C 0.121094 142.570312 4.167969 135.0625 10.707031 129.628906 C 15.613281 125.542969 21.929688 122.632812 28.996094 121.4375 L 28.996094 132.34375 C 28.996094 136.601562 32.441406 140.050781 36.703125 140.050781 L 41.277344 140.050781 L 47.167969 181.738281 C 44.445312 181.1875 41.601562 180.898438 38.679688 180.898438 L 36.253906 180.898438 C 16.304688 180.898438 0.121094 167.453125 0.121094 150.867188 Z M 0.121094 150.867188 " fill-opacity="1" fill-rule="nonzero"/></g><g clip-path="url(#e38267fed2)"><path fill="#273755" d="M 326.867188 271.003906 C 326.867188 279.296875 322.824219 286.800781 316.28125 292.242188 C 309.746094 297.675781 300.707031 301.039062 290.734375 301.039062 L 36.253906 301.039062 C 16.304688 301.039062 0.121094 287.589844 0.121094 271.007812 C 0.121094 262.714844 4.167969 255.203125 10.707031 249.769531 C 17.246094 244.335938 26.28125 240.972656 36.253906 240.972656 L 38.679688 240.972656 C 44.695312 240.972656 50.367188 239.746094 55.347656 237.589844 C 61.238281 261.558594 82.8125 278.804688 107.964844 278.804688 L 214.621094 278.804688 C 218.59375 278.804688 222.476562 278.371094 226.21875 277.550781 C 230.523438 279.933594 235.230469 281.683594 240.207031 282.6875 C 243.382812 283.335938 246.65625 283.667969 250.027344 283.667969 C 254.832031 283.667969 259.476562 282.984375 263.859375 281.703125 C 282.070312 276.386719 295.917969 260.851562 298.769531 241.71875 C 314.859375 244.753906 326.863281 256.714844 326.863281 271.003906 Z M 326.867188 271.003906 " fill-opacity="1" fill-rule="nonzero"/></g><path fill="#273755" d="M 326.867188 150.867188 C 326.867188 159.160156 322.824219 166.671875 316.28125 172.105469 C 309.746094 177.542969 300.707031 180.902344 290.734375 180.902344 L 275.53125 180.902344 L 281.308594 140.054688 L 285.878906 140.054688 C 290.136719 140.054688 293.59375 136.605469 293.59375 132.347656 L 293.59375 120.925781 C 312.214844 122.136719 326.867188 135.078125 326.867188 150.871094 Z M 326.867188 150.867188 " fill-opacity="1" fill-rule="nonzero"/><g clip-path="url(#a657cea530)"><path fill="#273755" d="M 0.121094 30.726562 C 0.121094 22.433594 4.167969 14.929688 10.707031 9.492188 C 17.246094 4.054688 26.28125 0.691406 36.253906 0.691406 L 290.730469 0.691406 C 310.6875 0.691406 326.863281 14.140625 326.863281 30.722656 C 326.863281 39.015625 322.820312 46.527344 316.277344 51.964844 C 309.742188 57.394531 300.703125 60.761719 290.730469 60.761719 L 281.363281 60.761719 C 271.382812 60.761719 262.347656 64.125 255.8125 69.5625 C 249.273438 74.992188 245.226562 82.503906 245.226562 90.796875 C 245.226562 93.289062 245.589844 95.703125 246.273438 98.011719 L 239.898438 98.011719 C 236.800781 95.53125 233.136719 93.726562 229.132812 92.816406 L 198.308594 14.839844 C 197.105469 11.792969 193.65625 10.300781 190.609375 11.503906 L 177.691406 16.609375 C 174.644531 17.816406 173.152344 21.261719 174.355469 24.3125 L 203.488281 98.011719 L 119.8125 98.011719 C 120.300781 96.351562 120.628906 94.636719 120.773438 92.878906 L 147.878906 24.3125 C 149.082031 21.261719 147.589844 17.816406 144.542969 16.609375 L 131.628906 11.503906 C 128.578125 10.300781 125.132812 11.796875 123.925781 14.839844 L 103.953125 65.367188 C 98.382812 62.453125 91.796875 60.765625 84.734375 60.765625 L 36.253906 60.765625 C 16.304688 60.765625 0.121094 47.316406 0.121094 30.730469 Z M 0.121094 30.726562 " fill-opacity="1" fill-rule="nonzero"/></g><path fill="#273755" d="M 297.347656 89.332031 C 297.347656 94.1875 295.585938 98.628906 292.667969 102.054688 C 291.367188 99.644531 288.8125 98.007812 285.878906 98.007812 L 260.097656 98.007812 C 258.8125 95.394531 258.085938 92.449219 258.085938 89.332031 C 258.085938 78.488281 266.875 69.699219 277.714844 69.699219 C 288.554688 69.699219 297.347656 78.488281 297.347656 89.332031 Z M 297.347656 89.332031 " fill-opacity="1" fill-rule="nonzero"/><path fill="#273755" d="M 53.652344 227.59375 C 51.011719 228.921875 48.027344 229.667969 44.871094 229.667969 C 34.03125 229.667969 25.242188 220.878906 25.242188 210.035156 C 25.242188 199.191406 34.03125 190.40625 44.871094 190.40625 C 46.089844 190.40625 47.28125 190.519531 48.445312 190.734375 L 53.652344 227.597656 Z M 53.652344 227.59375 " fill-opacity="1" fill-rule="nonzero"/></g></g></g></g><g mask="url(#ae294f0218)"><g transform="matrix(1, 0, 0, 1, 52, 153)"><g clip-path="url(#90eb2ae8ac)"><g clip-path="url(#7651571559)"><path fill="#273755" d="M 54.683594 43.050781 L 8.707031 43.050781 C 4.445312 43.050781 0.996094 39.601562 0.996094 35.34375 L 0.996094 8.71875 C 0.996094 4.460938 4.445312 1.011719 8.707031 1.011719 L 54.683594 1.011719 C 48.511719 5.933594 44.558594 13.519531 44.558594 22.03125 C 44.558594 30.542969 48.511719 38.125 54.683594 43.050781 Z M 54.683594 43.050781 " fill-opacity="1" fill-rule="nonzero"/></g></g></g></g><g mask="url(#2b259e88b8)"><g transform="matrix(1, 0, 0, 1, 139, 153)"><g clip-path="url(#f40e5316fd)"><g clip-path="url(#6bd7f88101)"><path fill="#273755" d="M 11.332031 22.03125 C 11.332031 14.421875 8.171875 7.554688 3.09375 2.664062 L 3.75 1.007812 L 88.492188 1.007812 L 89.242188 2.910156 C 84.3125 7.777344 81.253906 14.542969 81.253906 22.027344 C 81.253906 30.539062 85.207031 38.125 91.378906 43.046875 L 1.203125 43.046875 C 7.375 38.125 11.328125 30.539062 11.328125 22.027344 Z M 11.332031 22.03125 " fill-opacity="1" fill-rule="nonzero"/></g></g></g></g><g mask="url(#d0f70ac51b)"><g transform="matrix(1, 0, 0, 1, 263, 153)"><g clip-path="url(#6a68836f53)"><g clip-path="url(#41bf129561)"><path fill="#273755" d="M 54.589844 8.71875 L 54.589844 35.34375 C 54.589844 39.601562 51.136719 43.050781 46.875 43.050781 L 0.898438 43.050781 C 7.070312 38.125 11.023438 30.542969 11.023438 22.03125 C 11.023438 13.519531 7.070312 5.933594 0.898438 1.011719 L 46.875 1.011719 C 51.136719 1.011719 54.589844 4.460938 54.589844 8.71875 Z M 54.589844 8.71875 " fill-opacity="1" fill-rule="nonzero"/></g></g></g></g><path fill="#273755" d="M 109.589844 197.066406 L 60.707031 197.066406 C 55.894531 197.066406 51.980469 193.15625 51.980469 188.34375 L 51.980469 161.71875 C 51.980469 156.90625 55.894531 152.992188 60.707031 152.992188 L 109.589844 152.992188 L 107.320312 154.808594 C 101.128906 159.75 97.578125 167.121094 97.578125 175.035156 C 97.578125 182.949219 101.128906 190.320312 107.320312 195.261719 L 109.589844 197.070312 Z M 60.707031 155.023438 C 57.015625 155.023438 54.015625 158.027344 54.015625 161.714844 L 54.015625 188.339844 C 54.015625 192.027344 57.015625 195.03125 60.707031 195.03125 L 103.988281 195.03125 C 98.589844 189.792969 95.542969 182.644531 95.542969 175.027344 C 95.542969 167.410156 98.589844 160.261719 103.988281 155.023438 Z M 60.707031 155.023438 " fill-opacity="1" fill-rule="nonzero"/><path fill="#273755" d="M 233.289062 197.066406 L 137.300781 197.066406 L 139.574219 195.257812 C 145.765625 190.316406 149.3125 182.945312 149.3125 175.03125 C 149.3125 167.9375 146.5 161.316406 141.390625 156.402344 L 140.898438 155.925781 L 142.058594 152.992188 L 228.183594 152.992188 L 229.4375 156.167969 L 228.957031 156.640625 C 224.003906 161.53125 221.273438 168.0625 221.273438 175.035156 C 221.273438 182.949219 224.824219 190.320312 231.015625 195.261719 L 233.289062 197.070312 Z M 142.902344 195.03125 L 227.691406 195.03125 C 222.292969 189.796875 219.242188 182.648438 219.242188 175.03125 C 219.242188 167.414062 222.011719 160.890625 227.058594 155.667969 L 226.804688 155.027344 L 143.445312 155.027344 L 143.292969 155.414062 C 148.496094 160.667969 151.351562 167.605469 151.351562 175.03125 C 151.351562 182.457031 148.304688 189.796875 142.90625 195.03125 Z M 142.902344 195.03125 " fill-opacity="1" fill-rule="nonzero"/><path fill="#273755" d="M 309.878906 197.066406 L 260.996094 197.066406 L 263.269531 195.257812 C 269.460938 190.316406 273.011719 182.945312 273.011719 175.03125 C 273.011719 167.117188 269.460938 159.746094 263.269531 154.804688 L 260.996094 152.992188 L 309.878906 152.992188 C 314.695312 152.992188 318.609375 156.902344 318.609375 161.714844 L 318.609375 188.339844 C 318.609375 193.152344 314.695312 197.0625 309.878906 197.0625 Z M 266.597656 195.03125 L 309.878906 195.03125 C 313.574219 195.03125 316.578125 192.03125 316.578125 188.34375 L 316.578125 161.71875 C 316.578125 158.027344 313.574219 155.027344 309.878906 155.027344 L 266.597656 155.027344 C 271.996094 160.265625 275.050781 167.414062 275.050781 175.03125 C 275.050781 182.648438 272 189.796875 266.597656 195.03125 Z M 266.597656 195.03125 " fill-opacity="1" fill-rule="nonzero"/><g mask="url(#b4af3bfead)"><g transform="matrix(1, 0, 0, 1, 65, 195)"><g clip-path="url(#ffb58e8ae7)"><g clip-path="url(#3192cdfa85)"><path fill="#273755" d="M 198.902344 1.050781 C 194.308594 4.722656 188.484375 6.917969 182.144531 6.917969 C 175.800781 6.917969 169.976562 4.722656 165.382812 1.050781 L 75.207031 1.050781 C 70.613281 4.722656 64.78125 6.917969 58.445312 6.917969 C 52.109375 6.917969 46.28125 4.722656 41.683594 1.050781 L 0.28125 1.050781 L 1.808594 11.867188 L 13.304688 93.195312 C 17.082031 119.925781 39.960938 139.800781 66.964844 139.800781 L 173.621094 139.800781 C 177.59375 139.800781 181.476562 139.367188 185.21875 138.546875 C 170.03125 130.148438 159.746094 113.972656 159.746094 95.390625 C 159.746094 78.402344 168.34375 63.421875 181.425781 54.5625 L 172.972656 54.5625 C 169.964844 54.5625 167.523438 52.121094 167.523438 49.109375 L 167.523438 27.175781 C 167.523438 24.164062 169.960938 21.722656 172.972656 21.722656 L 188.199219 21.722656 C 191.207031 21.722656 193.648438 24.164062 193.648438 27.175781 L 193.648438 48.5625 C 198.488281 46.96875 203.65625 46.109375 209.027344 46.109375 C 217.753906 46.109375 225.945312 48.375 233.050781 52.355469 L 238.78125 11.863281 L 240.308594 1.046875 L 198.902344 1.046875 Z M 70.390625 98.417969 C 70.390625 101.425781 67.949219 103.867188 64.941406 103.867188 L 49.71875 103.867188 C 46.710938 103.867188 44.269531 101.425781 44.269531 98.417969 L 44.269531 76.484375 C 44.269531 73.476562 46.710938 71.035156 49.71875 71.035156 L 64.941406 71.035156 C 67.949219 71.035156 70.390625 73.476562 70.390625 76.484375 Z M 70.390625 49.109375 C 70.390625 52.121094 67.949219 54.5625 64.941406 54.5625 L 49.71875 54.5625 C 46.710938 54.5625 44.269531 52.121094 44.269531 49.109375 L 44.269531 27.175781 C 44.269531 24.164062 46.710938 21.722656 49.71875 21.722656 L 64.941406 21.722656 C 67.949219 21.722656 70.390625 24.164062 70.390625 27.175781 Z M 111.164062 98.417969 C 111.164062 101.425781 108.722656 103.867188 105.714844 103.867188 L 90.488281 103.867188 C 87.480469 103.867188 85.039062 101.425781 85.039062 98.417969 L 85.039062 76.484375 C 85.039062 73.476562 87.480469 71.035156 90.488281 71.035156 L 105.714844 71.035156 C 108.722656 71.035156 111.164062 73.476562 111.164062 76.484375 Z M 111.164062 49.109375 C 111.164062 52.121094 108.722656 54.5625 105.714844 54.5625 L 90.488281 54.5625 C 87.480469 54.5625 85.039062 52.121094 85.039062 49.109375 L 85.039062 27.175781 C 85.039062 24.164062 87.480469 21.722656 90.488281 21.722656 L 105.714844 21.722656 C 108.722656 21.722656 111.164062 24.164062 111.164062 27.175781 Z M 151.933594 98.417969 C 151.933594 101.425781 149.492188 103.867188 146.484375 103.867188 L 131.261719 103.867188 C 128.253906 103.867188 125.8125 101.425781 125.8125 98.417969 L 125.8125 76.484375 C 125.8125 73.476562 128.253906 71.035156 131.261719 71.035156 L 146.484375 71.035156 C 149.492188 71.035156 151.933594 73.476562 151.933594 76.484375 Z M 151.933594 49.109375 C 151.933594 52.121094 149.492188 54.5625 146.484375 54.5625 L 131.261719 54.5625 C 128.253906 54.5625 125.8125 52.121094 125.8125 49.109375 L 125.8125 27.175781 C 125.8125 24.164062 128.253906 21.722656 131.261719 21.722656 L 146.484375 21.722656 C 149.492188 21.722656 151.933594 24.164062 151.933594 27.175781 Z M 151.933594 49.109375 " fill-opacity="1" fill-rule="nonzero"/></g></g></g></g><path fill="#273755" d="M 238.621094 335.816406 L 131.964844 335.816406 C 118.660156 335.816406 105.804688 331.011719 95.757812 322.289062 C 85.714844 313.570312 79.160156 301.511719 77.296875 288.339844 L 64.109375 195.03125 L 107.042969 195.03125 L 107.324219 195.257812 C 111.871094 198.894531 117.601562 200.898438 123.449219 200.898438 C 129.296875 200.898438 134.953125 198.949219 139.574219 195.257812 L 139.855469 195.03125 L 230.742188 195.03125 L 231.019531 195.257812 C 235.632812 198.949219 241.210938 200.898438 247.144531 200.898438 C 253.082031 200.898438 258.652344 198.949219 263.273438 195.257812 L 263.550781 195.03125 L 306.484375 195.03125 L 298.855469 248.972656 L 297.5625 248.246094 C 290.417969 244.242188 282.28125 242.128906 274.035156 242.128906 C 268.878906 242.128906 263.808594 242.933594 258.96875 244.527344 L 257.632812 244.96875 L 257.632812 222.179688 C 257.632812 219.734375 255.648438 217.746094 253.207031 217.746094 L 237.980469 217.746094 C 235.539062 217.746094 233.550781 219.734375 233.550781 222.179688 L 233.550781 244.113281 C 233.550781 246.558594 235.539062 248.546875 237.980469 248.546875 L 249.75 248.546875 L 247.003906 250.40625 C 233.707031 259.410156 225.769531 274.359375 225.769531 290.394531 C 225.769531 307.953125 235.328125 324.152344 250.714844 332.664062 L 253.078125 333.96875 L 250.441406 334.546875 C 246.582031 335.390625 242.609375 335.820312 238.628906 335.820312 Z M 66.449219 197.066406 L 79.3125 288.054688 C 82.996094 314.121094 105.632812 333.78125 131.964844 333.78125 L 238.621094 333.78125 C 241.5625 333.78125 244.496094 333.539062 247.382812 333.058594 C 232.726562 323.890625 223.730469 307.785156 223.730469 290.390625 C 223.730469 274.742188 230.984375 260.082031 243.289062 250.578125 L 237.972656 250.578125 C 234.410156 250.578125 231.511719 247.675781 231.511719 244.109375 L 231.511719 222.175781 C 231.511719 218.609375 234.410156 215.707031 237.972656 215.707031 L 253.199219 215.707031 C 256.761719 215.707031 259.660156 218.609375 259.660156 222.175781 L 259.660156 242.179688 C 264.300781 240.796875 269.128906 240.09375 274.027344 240.09375 C 282.128906 240.09375 290.125 242.050781 297.25 245.765625 L 304.136719 197.066406 L 264.253906 197.066406 C 259.324219 200.90625 253.414062 202.933594 247.140625 202.933594 C 240.863281 202.933594 234.949219 200.90625 230.027344 197.066406 L 140.554688 197.066406 C 135.691406 200.851562 129.628906 202.933594 123.441406 202.933594 C 117.257812 202.933594 111.191406 200.851562 106.328125 197.066406 Z M 66.449219 197.066406 " fill-opacity="1" fill-rule="nonzero"/><path fill="#273755" d="M 216.929688 222.175781 L 216.929688 244.109375 C 216.929688 247.121094 214.488281 249.5625 211.480469 249.5625 L 196.257812 249.5625 C 193.25 249.5625 190.808594 247.121094 190.808594 244.109375 L 190.808594 222.175781 C 190.808594 219.164062 193.25 216.722656 196.257812 216.722656 L 211.480469 216.722656 C 214.488281 216.722656 216.929688 219.164062 216.929688 222.175781 Z M 216.929688 222.175781 " fill-opacity="1" fill-rule="nonzero"/><path fill="#273755" d="M 211.480469 266.035156 L 196.261719 266.035156 C 193.25 266.035156 190.8125 268.472656 190.8125 271.484375 L 190.8125 293.414062 C 190.8125 296.421875 193.25 298.863281 196.261719 298.863281 L 211.480469 298.863281 C 214.492188 298.863281 216.929688 296.421875 216.929688 293.414062 L 216.929688 271.484375 C 216.929688 268.472656 214.492188 266.035156 211.480469 266.035156 Z M 211.480469 266.035156 " fill-opacity="1" fill-rule="nonzero"/><path fill="#273755" d="M 176.160156 222.175781 L 176.160156 244.109375 C 176.160156 247.121094 173.71875 249.5625 170.710938 249.5625 L 155.484375 249.5625 C 152.476562 249.5625 150.035156 247.121094 150.035156 244.109375 L 150.035156 222.175781 C 150.035156 219.164062 152.476562 216.722656 155.484375 216.722656 L 170.710938 216.722656 C 173.71875 216.722656 176.160156 219.164062 176.160156 222.175781 Z M 176.160156 222.175781 " fill-opacity="1" fill-rule="nonzero"/><path fill="#273755" d="M 170.710938 266.035156 L 155.488281 266.035156 C 152.480469 266.035156 150.039062 268.472656 150.039062 271.484375 L 150.039062 293.414062 C 150.039062 296.421875 152.480469 298.863281 155.488281 298.863281 L 170.710938 298.863281 C 173.71875 298.863281 176.160156 296.421875 176.160156 293.414062 L 176.160156 271.484375 C 176.160156 268.472656 173.71875 266.035156 170.710938 266.035156 Z M 170.710938 266.035156 " fill-opacity="1" fill-rule="nonzero"/><path fill="#273755" d="M 135.390625 222.175781 L 135.390625 244.109375 C 135.390625 247.121094 132.949219 249.5625 129.941406 249.5625 L 114.71875 249.5625 C 111.710938 249.5625 109.269531 247.121094 109.269531 244.109375 L 109.269531 222.175781 C 109.269531 219.164062 111.710938 216.722656 114.71875 216.722656 L 129.941406 216.722656 C 132.949219 216.722656 135.390625 219.164062 135.390625 222.175781 Z M 135.390625 222.175781 " fill-opacity="1" fill-rule="nonzero"/><path fill="#273755" d="M 129.941406 266.035156 L 114.722656 266.035156 C 111.710938 266.035156 109.273438 268.472656 109.273438 271.484375 L 109.273438 293.414062 C 109.273438 296.421875 111.710938 298.863281 114.722656 298.863281 L 129.941406 298.863281 C 132.953125 298.863281 135.390625 296.421875 135.390625 293.414062 L 135.390625 271.484375 C 135.390625 268.472656 132.953125 266.035156 129.941406 266.035156 Z M 129.941406 266.035156 " fill-opacity="1" fill-rule="nonzero"/><path fill="#273755" d="M 258.644531 222.175781 L 258.644531 243.5625 C 254.269531 244.992188 250.164062 247.027344 246.425781 249.558594 L 237.96875 249.558594 C 234.960938 249.558594 232.523438 247.117188 232.523438 244.105469 L 232.523438 222.171875 C 232.523438 219.164062 234.957031 216.722656 237.96875 216.722656 L 253.195312 216.722656 C 256.203125 216.722656 258.644531 219.164062 258.644531 222.171875 Z M 258.644531 222.175781 " fill-opacity="1" fill-rule="nonzero"/><g mask="url(#ba1cacb893)"><g transform="matrix(1, 0, 0, 1, 96, 147)"><g clip-path="url(#c36ebcaf12)"><g clip-path="url(#5ecfc0e604)"><path fill="#273755" d="M 54.332031 28.03125 C 54.332031 36.542969 50.378906 44.125 44.207031 49.050781 C 39.613281 52.722656 33.78125 54.917969 27.445312 54.917969 C 21.109375 54.917969 15.28125 52.722656 10.683594 49.050781 C 4.511719 44.125 0.558594 36.542969 0.558594 28.03125 C 0.558594 19.519531 4.511719 11.933594 10.683594 7.011719 C 13.6875 4.609375 17.210938 2.84375 21.066406 1.90625 C 23.109375 1.410156 25.25 1.144531 27.445312 1.144531 C 33.78125 1.144531 39.613281 3.339844 44.207031 7.011719 C 44.859375 7.53125 45.492188 8.089844 46.09375 8.667969 C 51.175781 13.554688 54.332031 20.421875 54.332031 28.035156 Z M 54.332031 28.03125 " fill-opacity="1" fill-rule="nonzero"/></g></g></g></g><g mask="url(#6b2470cbb9)"><g transform="matrix(1, 0, 0, 1, 110, 161)"><g clip-path="url(#3f9a7d1937)"><g clip-path="url(#bc1a1cb6d8)"><path fill="#273755" d="M 13.445312 27.003906 C 20.609375 27.003906 26.417969 21.195312 26.417969 14.03125 C 26.417969 6.867188 20.609375 1.058594 13.445312 1.058594 C 6.28125 1.058594 0.472656 6.867188 0.472656 14.03125 C 0.472656 21.195312 6.28125 27.003906 13.445312 27.003906 Z M 13.445312 27.003906 " fill-opacity="1" fill-rule="nonzero"/></g></g></g></g><g mask="url(#4f6c9560fa)"><g transform="matrix(1, 0, 0, 1, 219, 147)"><g clip-path="url(#d04f14e042)"><g clip-path="url(#484c6cf5d6)"><path fill="#273755" d="M 55.027344 28.03125 C 55.027344 36.542969 51.074219 44.125 44.902344 49.050781 C 40.308594 52.722656 34.484375 54.917969 28.144531 54.917969 C 21.800781 54.917969 15.976562 52.722656 11.382812 49.050781 C 5.210938 44.125 1.257812 36.542969 1.257812 28.03125 C 1.257812 20.546875 4.3125 13.78125 9.246094 8.914062 C 9.925781 8.238281 10.636719 7.605469 11.382812 7.011719 C 15.976562 3.339844 21.800781 1.144531 28.144531 1.144531 C 30.203125 1.144531 32.207031 1.375 34.132812 1.816406 C 38.140625 2.726562 41.804688 4.527344 44.902344 7.011719 C 51.074219 11.933594 55.027344 19.519531 55.027344 28.03125 Z M 55.027344 28.03125 " fill-opacity="1" fill-rule="nonzero"/></g></g></g></g><path fill="#273755" d="M 123.445312 202.933594 C 117.140625 202.933594 110.960938 200.769531 106.050781 196.847656 C 99.375 191.519531 95.542969 183.570312 95.542969 175.03125 C 95.542969 166.492188 99.371094 158.542969 106.050781 153.214844 C 109.242188 150.660156 112.871094 148.878906 116.828125 147.914062 C 118.976562 147.390625 121.203125 147.128906 123.445312 147.128906 C 129.753906 147.128906 135.929688 149.289062 140.839844 153.214844 C 141.484375 153.726562 142.144531 154.300781 142.796875 154.933594 C 148.3125 160.238281 151.347656 167.378906 151.347656 175.03125 C 151.347656 183.570312 147.519531 191.519531 140.839844 196.847656 C 135.929688 200.773438 129.753906 202.933594 123.445312 202.933594 Z M 123.445312 149.164062 C 121.367188 149.164062 119.300781 149.40625 117.308594 149.890625 C 113.640625 150.78125 110.277344 152.4375 107.320312 154.804688 C 101.128906 159.746094 97.578125 167.117188 97.578125 175.03125 C 97.578125 182.945312 101.128906 190.316406 107.320312 195.257812 C 111.9375 198.949219 117.515625 200.898438 123.445312 200.898438 C 129.375 200.898438 134.953125 198.949219 139.574219 195.257812 C 145.765625 190.316406 149.3125 182.945312 149.3125 175.03125 C 149.3125 167.933594 146.5 161.316406 141.390625 156.402344 C 140.78125 155.816406 140.171875 155.28125 139.574219 154.808594 C 134.953125 151.117188 129.378906 149.164062 123.445312 149.164062 Z M 123.445312 149.164062 " fill-opacity="1" fill-rule="nonzero"/><path fill="#273755" d="M 247.144531 202.933594 C 240.746094 202.933594 234.730469 200.828125 229.746094 196.847656 C 223.070312 191.519531 219.238281 183.570312 219.238281 175.03125 C 219.238281 167.511719 222.183594 160.46875 227.53125 155.191406 C 228.222656 154.503906 228.96875 153.839844 229.746094 153.21875 C 234.730469 149.238281 240.746094 147.132812 247.144531 147.132812 C 249.25 147.132812 251.339844 147.363281 253.363281 147.828125 C 257.417969 148.75 261.28125 150.613281 264.539062 153.222656 C 271.214844 158.546875 275.046875 166.5 275.046875 175.039062 C 275.046875 183.574219 271.214844 191.527344 264.539062 196.855469 C 259.554688 200.835938 253.542969 202.941406 247.144531 202.941406 Z M 247.144531 149.164062 C 241.210938 149.164062 235.632812 151.113281 231.015625 154.804688 C 230.292969 155.382812 229.601562 155.996094 228.960938 156.636719 C 224.003906 161.527344 221.273438 168.0625 221.273438 175.03125 C 221.273438 182.945312 224.824219 190.316406 231.015625 195.257812 C 235.632812 198.949219 241.210938 200.898438 247.144531 200.898438 C 253.074219 200.898438 258.652344 198.949219 263.269531 195.257812 C 269.460938 190.316406 273.011719 182.945312 273.011719 175.03125 C 273.011719 167.117188 269.460938 159.746094 263.269531 154.804688 C 260.25 152.390625 256.667969 150.660156 252.910156 149.804688 C 251.035156 149.378906 249.097656 149.160156 247.144531 149.160156 Z M 247.144531 149.164062 " fill-opacity="1" fill-rule="nonzero"/><g mask="url(#33c727abb8)"><g transform="matrix(1, 0, 0, 1, 233, 161)"><g clip-path="url(#feeb0ed9d1)"><g clip-path="url(#5f4bd3bc6a)"><path fill="#273755" d="M 14.144531 27.003906 C 21.308594 27.003906 27.117188 21.195312 27.117188 14.03125 C 27.117188 6.867188 21.308594 1.058594 14.144531 1.058594 C 6.976562 1.058594 1.167969 6.867188 1.167969 14.03125 C 1.167969 21.195312 6.976562 27.003906 14.144531 27.003906 Z M 14.144531 27.003906 " fill-opacity="1" fill-rule="nonzero"/></g></g></g></g><g mask="url(#707ec6781a)"><g transform="matrix(1, 0, 0, 1, 116, 66)"><g clip-path="url(#419816a6f3)"><g clip-path="url(#aa8e4a5cc5)"><path fill="#273755" d="M 137.132812 82.816406 C 135.207031 82.375 133.203125 82.144531 131.144531 82.144531 C 124.800781 82.144531 118.976562 84.339844 114.382812 88.011719 C 114.007812 88.308594 113.644531 88.613281 113.289062 88.933594 C 113.109375 89.09375 112.9375 89.253906 112.761719 89.417969 C 112.585938 89.582031 112.414062 89.746094 112.246094 89.914062 L 111.496094 88.011719 L 82.363281 14.3125 C 81.160156 11.261719 82.652344 7.816406 85.699219 6.609375 L 98.613281 1.503906 C 101.664062 0.300781 105.113281 1.796875 106.316406 4.839844 L 137.136719 82.816406 Z M 137.132812 82.816406 " fill-opacity="1" fill-rule="nonzero"/></g><path fill="#273755" d="M 55.878906 14.308594 L 26.75 88.007812 L 26.09375 89.664062 C 26.09375 89.664062 26.058594 89.636719 26.042969 89.617188 C 25.929688 89.507812 25.8125 89.402344 25.699219 89.292969 C 25.21875 88.847656 24.722656 88.417969 24.210938 88.007812 C 19.617188 84.335938 13.785156 82.140625 7.449219 82.140625 C 5.25 82.140625 3.113281 82.402344 1.070312 82.902344 L 31.925781 4.835938 C 33.132812 1.789062 36.578125 0.296875 39.632812 1.5 L 52.546875 6.609375 C 55.59375 7.8125 57.085938 11.261719 55.882812 14.308594 Z M 55.878906 14.308594 " fill-opacity="1" fill-rule="nonzero"/></g></g></g><path fill="#273755" d="M 227.859375 157.710938 L 226.546875 154.382812 L 197.414062 80.683594 C 196.730469 78.957031 196.761719 77.066406 197.5 75.363281 C 198.242188 73.660156 199.597656 72.347656 201.324219 71.664062 L 214.238281 66.558594 C 215.964844 65.875 217.851562 65.90625 219.558594 66.648438 C 221.265625 67.386719 222.578125 68.742188 223.257812 70.46875 L 254.792969 150.242188 L 252.910156 149.808594 C 251.039062 149.382812 249.097656 149.164062 247.144531 149.164062 C 241.214844 149.164062 235.636719 151.117188 231.019531 154.808594 C 230.632812 155.117188 230.289062 155.40625 229.972656 155.691406 C 229.796875 155.847656 229.632812 155.996094 229.464844 156.15625 C 229.285156 156.324219 229.125 156.484375 228.957031 156.644531 L 227.863281 157.714844 Z M 216.792969 68.101562 C 216.179688 68.101562 215.566406 68.214844 214.984375 68.445312 L 202.070312 73.554688 C 200.847656 74.035156 199.886719 74.964844 199.367188 76.171875 C 198.84375 77.378906 198.820312 78.714844 199.304688 79.933594 L 228.640625 154.148438 C 228.976562 153.84375 229.339844 153.539062 229.746094 153.214844 C 234.730469 149.234375 240.746094 147.128906 247.144531 147.128906 C 248.609375 147.128906 250.074219 147.242188 251.507812 147.464844 L 221.363281 71.214844 C 220.882812 69.992188 219.953125 69.035156 218.746094 68.507812 C 218.117188 68.238281 217.453125 68.101562 216.789062 68.101562 Z M 216.792969 68.101562 " fill-opacity="1" fill-rule="nonzero"/><path fill="#273755" d="M 142.46875 157.480469 L 141.371094 156.382812 C 141.371094 156.382812 141.34375 156.359375 141.320312 156.335938 C 141.222656 156.242188 141.113281 156.140625 141.003906 156.035156 C 140.535156 155.601562 140.054688 155.1875 139.574219 154.800781 C 134.953125 151.109375 129.375 149.160156 123.445312 149.160156 C 121.367188 149.160156 119.300781 149.402344 117.308594 149.886719 L 115.398438 150.351562 L 146.976562 70.464844 C 148.390625 66.902344 152.4375 65.148438 156 66.554688 L 168.917969 71.660156 C 172.480469 73.070312 174.238281 77.117188 172.828125 80.679688 Z M 123.441406 147.125 C 129.75 147.125 135.925781 149.289062 140.835938 153.210938 C 141.121094 153.4375 141.402344 153.671875 141.683594 153.917969 L 141.796875 153.628906 L 170.925781 79.929688 C 171.925781 77.40625 170.683594 74.542969 168.160156 73.546875 L 155.246094 68.441406 C 152.722656 67.445312 149.855469 68.6875 148.859375 71.207031 L 118.695312 147.519531 C 120.25 147.253906 121.839844 147.117188 123.433594 147.117188 Z M 123.441406 147.125 " fill-opacity="1" fill-rule="nonzero"/><path fill="#273755" d="M 305.308594 196.050781 L 303.78125 206.867188 L 66.808594 206.867188 L 65.28125 196.050781 L 106.683594 196.050781 C 111.28125 199.722656 117.109375 201.917969 123.445312 201.917969 C 129.78125 201.917969 135.613281 199.722656 140.207031 196.050781 L 230.382812 196.050781 C 234.976562 199.722656 240.800781 201.917969 247.144531 201.917969 C 253.484375 201.917969 259.308594 199.722656 263.902344 196.050781 Z M 305.308594 196.050781 " fill-opacity="1" fill-rule="nonzero"/><g mask="url(#d362c490ee)"><g transform="matrix(1, 0, 0, 1, 224, 240)"><g clip-path="url(#c253ba1c5e)"><g clip-path="url(#cd24377ead)"><path fill="#273755" d="M 76.71875 8.960938 C 75.847656 8.402344 74.957031 7.867188 74.050781 7.359375 C 66.941406 3.378906 58.753906 1.113281 50.027344 1.113281 C 44.65625 1.113281 39.488281 1.972656 34.648438 3.566406 C 30.273438 4.996094 26.167969 7.03125 22.425781 9.5625 C 9.34375 18.421875 0.746094 33.402344 0.746094 50.390625 C 0.746094 68.972656 11.03125 85.148438 26.21875 93.546875 C 30.523438 95.929688 35.230469 97.679688 40.207031 98.683594 C 43.382812 99.332031 46.65625 99.664062 50.027344 99.664062 C 54.832031 99.664062 59.476562 98.980469 63.859375 97.699219 C 84.34375 91.71875 99.308594 72.804688 99.308594 50.386719 C 99.308594 33 90.308594 17.726562 76.71875 8.957031 Z M 69.179688 55.410156 C 69.179688 62.832031 67.515625 68.558594 64.183594 72.582031 C 61.496094 75.824219 57.925781 77.761719 53.46875 78.390625 C 52.390625 78.546875 51.265625 78.621094 50.085938 78.621094 C 43.96875 78.621094 39.242188 76.59375 35.894531 72.546875 C 33.039062 69.085938 31.40625 64.429688 30.988281 58.5625 C 30.914062 57.546875 30.878906 56.5 30.878906 55.410156 L 30.878906 45.371094 C 30.878906 39.074219 32.078125 33.996094 34.480469 30.140625 C 34.90625 29.453125 35.375 28.804688 35.875 28.195312 C 39.207031 24.171875 43.917969 22.15625 50.007812 22.15625 C 56.097656 22.15625 60.816406 24.183594 64.160156 28.234375 C 67.054688 31.734375 68.695312 36.488281 69.085938 42.488281 C 69.148438 43.433594 69.179688 44.40625 69.179688 45.410156 L 69.179688 55.414062 Z M 69.179688 55.410156 " fill-opacity="1" fill-rule="nonzero"/></g></g></g></g><path fill="#273755" d="M 274.027344 340.6875 C 270.667969 340.6875 267.328125 340.355469 264.097656 339.703125 L 264.003906 339.683594 C 258.992188 338.675781 254.191406 336.910156 249.722656 334.441406 C 233.6875 325.570312 223.726562 308.695312 223.726562 290.390625 C 223.726562 273.683594 231.996094 258.101562 245.855469 248.714844 C 249.726562 246.09375 253.925781 244.039062 258.328125 242.597656 C 263.371094 240.933594 268.652344 240.09375 274.027344 240.09375 C 282.625 240.09375 291.101562 242.296875 298.550781 246.46875 C 299.449219 246.96875 300.363281 247.519531 301.269531 248.101562 C 315.707031 257.421875 324.328125 273.230469 324.328125 290.386719 C 324.328125 301.488281 320.785156 312.011719 314.078125 320.824219 C 307.585938 329.347656 298.378906 335.6875 288.148438 338.675781 C 283.59375 340.007812 278.84375 340.683594 274.03125 340.683594 Z M 264.308594 337.671875 L 264.414062 337.691406 C 267.539062 338.328125 270.773438 338.652344 274.027344 338.652344 C 278.648438 338.652344 283.207031 338.003906 287.574219 336.726562 C 308.015625 330.757812 322.292969 311.703125 322.292969 290.390625 C 322.292969 273.925781 314.023438 258.757812 300.167969 249.816406 C 299.300781 249.253906 298.421875 248.726562 297.558594 248.25 C 290.410156 244.246094 282.273438 242.132812 274.027344 242.132812 C 268.871094 242.132812 263.800781 242.9375 258.964844 244.53125 C 254.738281 245.914062 250.714844 247.890625 246.996094 250.40625 C 233.703125 259.410156 225.765625 274.363281 225.765625 290.394531 C 225.765625 307.953125 235.324219 324.148438 250.710938 332.664062 C 254.964844 335.011719 259.539062 336.703125 264.308594 337.675781 Z M 264.308594 337.671875 " fill-opacity="1" fill-rule="nonzero"/><path fill="#273755" d="M 288.160156 268.234375 C 284.816406 264.183594 280.09375 262.15625 274.003906 262.15625 C 267.914062 262.15625 263.207031 264.171875 259.871094 268.195312 C 256.539062 272.222656 254.871094 277.949219 254.871094 285.367188 L 254.871094 295.410156 C 254.871094 302.785156 256.542969 308.492188 259.890625 312.546875 C 263.230469 316.597656 267.964844 318.621094 274.078125 318.621094 C 280.191406 318.621094 284.84375 316.609375 288.175781 312.582031 C 291.507812 308.558594 293.175781 302.832031 293.175781 295.410156 L 293.175781 285.40625 C 293.175781 278.011719 291.5 272.28125 288.15625 268.234375 Z M 280.460938 297.335938 C 280.4375 301.289062 279.910156 304.191406 278.878906 306.035156 C 277.84375 307.886719 276.246094 308.808594 274.082031 308.808594 C 271.917969 308.808594 270.207031 307.859375 269.171875 305.960938 C 268.140625 304.0625 267.625 301.0625 267.625 296.957031 L 267.625 282.917969 C 267.703125 279.246094 268.238281 276.503906 269.230469 274.691406 C 270.222656 272.878906 271.8125 271.972656 274 271.972656 C 276.1875 271.972656 277.878906 272.949219 278.910156 274.902344 C 279.941406 276.851562 280.457031 279.800781 280.457031 283.75 L 280.457031 297.335938 Z M 280.460938 297.335938 " fill-opacity="1" fill-rule="nonzero"/><g mask="url(#afe330ba63)"><g transform="matrix(1, 0, 0, 1, 267, 271)"><g clip-path="url(#6f52f024af)"><g clip-path="url(#617ed27b1e)"><path fill="#273755" d="M 13.460938 12.746094 L 13.460938 26.335938 C 13.4375 30.285156 12.910156 33.1875 11.878906 35.03125 C 10.84375 36.882812 9.246094 37.804688 7.082031 37.804688 C 4.917969 37.804688 3.207031 36.855469 2.171875 34.957031 C 1.140625 33.058594 0.625 30.058594 0.625 25.953125 L 0.625 11.914062 C 0.703125 8.242188 1.238281 5.5 2.230469 3.6875 C 3.222656 1.875 4.8125 0.972656 7 0.972656 C 9.1875 0.972656 10.878906 1.949219 11.910156 3.898438 C 12.941406 5.847656 13.457031 8.796875 13.457031 12.746094 Z M 13.460938 12.746094 " fill-opacity="1" fill-rule="nonzero"/></g></g></g></g><path fill="#273755" d="M 94.910156 135.777344 C 94.746094 135.777344 94.578125 135.738281 94.421875 135.652344 C 92.007812 134.339844 89.820312 132.515625 87.914062 130.230469 C 87.554688 129.800781 87.613281 129.160156 88.042969 128.796875 C 88.472656 128.4375 89.113281 128.496094 89.476562 128.925781 C 91.214844 131.011719 93.207031 132.671875 95.394531 133.863281 C 95.886719 134.128906 96.066406 134.746094 95.800781 135.242188 C 95.617188 135.582031 95.269531 135.773438 94.90625 135.773438 Z M 84.578125 123.617188 C 84.167969 123.617188 83.785156 123.375 83.628906 122.976562 C 82.558594 120.246094 81.972656 117.464844 81.890625 114.707031 C 81.875 114.144531 82.316406 113.675781 82.878906 113.660156 C 83.449219 113.648438 83.910156 114.085938 83.925781 114.648438 C 84 117.132812 84.554688 119.753906 85.527344 122.230469 C 85.734375 122.75 85.476562 123.339844 84.953125 123.546875 C 84.832031 123.59375 84.707031 123.617188 84.582031 123.617188 Z M 96.742188 115.894531 C 96.289062 115.894531 95.875 115.589844 95.757812 115.128906 C 95.621094 114.582031 95.949219 114.03125 96.492188 113.890625 C 97.023438 113.753906 97.5625 113.585938 98.09375 113.386719 C 99.542969 112.839844 101.476562 111.8125 102.445312 110.023438 C 102.714844 109.527344 103.332031 109.34375 103.828125 109.613281 C 104.320312 109.878906 104.503906 110.496094 104.238281 110.992188 C 102.96875 113.339844 100.585938 114.625 98.808594 115.292969 C 98.210938 115.519531 97.601562 115.710938 96.992188 115.867188 C 96.910156 115.886719 96.824219 115.898438 96.742188 115.898438 Z M 88.714844 115.726562 C 88.613281 115.726562 88.511719 115.710938 88.414062 115.679688 C 85.710938 114.847656 83.207031 113.265625 81.175781 111.105469 C 80.789062 110.695312 80.808594 110.054688 81.21875 109.667969 C 81.628906 109.28125 82.269531 109.304688 82.65625 109.714844 C 84.453125 111.617188 86.648438 113.007812 89.015625 113.738281 C 89.550781 113.90625 89.851562 114.472656 89.6875 115.011719 C 89.550781 115.445312 89.152344 115.730469 88.714844 115.730469 Z M 84.378906 107.761719 C 84.242188 107.761719 84.101562 107.734375 83.964844 107.671875 C 83.453125 107.445312 83.21875 106.84375 83.449219 106.328125 C 84.625 103.675781 86.425781 101.429688 88.796875 99.648438 C 89.25 99.3125 89.886719 99.40625 90.222656 99.851562 C 90.558594 100.304688 90.464844 100.941406 90.019531 101.277344 C 87.925781 102.84375 86.339844 104.824219 85.304688 107.152344 C 85.136719 107.53125 84.765625 107.757812 84.375 107.757812 Z M 77.800781 104.472656 C 77.386719 104.472656 76.996094 104.214844 76.84375 103.796875 C 75.894531 101.148438 75.363281 98.367188 75.269531 95.527344 C 75.25 94.964844 75.6875 94.496094 76.253906 94.476562 C 76.816406 94.457031 77.28125 94.894531 77.304688 95.457031 C 77.394531 98.089844 77.882812 100.664062 78.761719 103.113281 C 78.953125 103.640625 78.675781 104.222656 78.148438 104.414062 C 78.035156 104.453125 77.917969 104.472656 77.804688 104.472656 Z M 103 103.679688 C 102.621094 103.679688 102.257812 103.46875 102.082031 103.105469 C 101.058594 100.972656 99.460938 99.472656 97.691406 98.992188 C 97.40625 98.914062 97.113281 98.859375 96.8125 98.828125 C 96.25 98.769531 95.84375 98.273438 95.898438 97.714844 C 95.953125 97.15625 96.453125 96.746094 97.011719 96.804688 C 97.425781 96.84375 97.835938 96.917969 98.226562 97.027344 C 100.59375 97.671875 102.613281 99.519531 103.910156 102.222656 C 104.15625 102.726562 103.941406 103.339844 103.433594 103.578125 C 103.289062 103.648438 103.140625 103.679688 102.996094 103.679688 Z M 77.269531 88.464844 C 77.175781 88.464844 77.078125 88.453125 76.988281 88.425781 C 76.449219 88.269531 76.136719 87.707031 76.292969 87.164062 C 76.730469 85.648438 77.308594 84.175781 78.007812 82.796875 C 78.566406 81.691406 79.230469 80.605469 79.976562 79.570312 C 80.304688 79.109375 80.9375 79.007812 81.394531 79.335938 C 81.855469 79.664062 81.957031 80.296875 81.628906 80.753906 C 80.945312 81.707031 80.339844 82.707031 79.828125 83.71875 C 79.183594 84.988281 78.652344 86.335938 78.25 87.730469 C 78.121094 88.175781 77.714844 88.464844 77.273438 88.464844 Z M 86.4375 75.351562 C 86.140625 75.351562 85.84375 75.21875 85.640625 74.96875 C 85.292969 74.527344 85.363281 73.890625 85.800781 73.535156 C 87.816406 71.929688 90.160156 70.40625 92.777344 69.011719 C 93.269531 68.746094 93.886719 68.933594 94.152344 69.425781 C 94.417969 69.921875 94.230469 70.539062 93.734375 70.804688 C 91.234375 72.144531 88.988281 73.59375 87.074219 75.128906 C 86.886719 75.277344 86.660156 75.347656 86.4375 75.347656 Z M 86.4375 75.351562 " fill-opacity="1" fill-rule="nonzero"/><path fill="#273755" d="M 268.285156 131.585938 C 267.933594 131.585938 267.585938 131.402344 267.398438 131.070312 C 267.121094 130.582031 267.292969 129.964844 267.78125 129.683594 C 267.808594 129.667969 270.675781 128.039062 274.5 125.246094 C 274.953125 124.914062 275.589844 125.015625 275.921875 125.46875 C 276.253906 125.921875 276.152344 126.558594 275.699219 126.886719 C 271.773438 129.753906 268.910156 131.382812 268.789062 131.453125 C 268.628906 131.542969 268.457031 131.585938 268.289062 131.585938 Z M 281.453125 121.988281 C 281.171875 121.988281 280.890625 121.871094 280.691406 121.644531 C 280.320312 121.226562 280.359375 120.582031 280.78125 120.210938 C 282.886719 118.351562 284.796875 116.449219 286.472656 114.566406 C 286.847656 114.144531 287.488281 114.109375 287.910156 114.480469 C 288.332031 114.855469 288.367188 115.5 287.996094 115.917969 C 286.269531 117.863281 284.296875 119.824219 282.128906 121.742188 C 281.9375 121.910156 281.695312 121.996094 281.453125 121.996094 Z M 292.117188 109.746094 C 291.9375 109.746094 291.75 109.699219 291.585938 109.597656 C 291.109375 109.304688 290.957031 108.679688 291.25 108.199219 C 292.726562 105.789062 293.8125 103.386719 294.476562 101.054688 C 294.628906 100.515625 295.191406 100.199219 295.734375 100.355469 C 296.273438 100.507812 296.585938 101.070312 296.433594 101.613281 C 295.714844 104.125 294.558594 106.699219 292.988281 109.261719 C 292.792969 109.574219 292.460938 109.746094 292.117188 109.746094 Z M 289.667969 108.6875 C 289.640625 108.6875 289.613281 108.6875 289.585938 108.6875 C 286.484375 108.445312 283.726562 107.703125 281.386719 106.480469 C 280.886719 106.222656 280.695312 105.605469 280.957031 105.109375 C 281.21875 104.609375 281.832031 104.417969 282.328125 104.679688 C 284.421875 105.769531 286.917969 106.4375 289.746094 106.660156 C 290.304688 106.707031 290.726562 107.199219 290.675781 107.757812 C 290.636719 108.289062 290.1875 108.691406 289.664062 108.691406 Z M 297.765625 108.195312 C 297.285156 108.195312 296.859375 107.855469 296.765625 107.367188 C 296.664062 106.8125 297.023438 106.28125 297.574219 106.175781 C 300.132812 105.6875 302.664062 104.894531 305.105469 103.820312 C 305.621094 103.59375 306.222656 103.828125 306.449219 104.34375 C 306.675781 104.859375 306.441406 105.457031 305.925781 105.683594 C 303.34375 106.820312 300.664062 107.660156 297.953125 108.175781 C 297.890625 108.191406 297.824219 108.195312 297.761719 108.195312 Z M 312.539062 101.695312 C 312.226562 101.695312 311.921875 101.550781 311.722656 101.285156 C 311.386719 100.832031 311.480469 100.195312 311.929688 99.859375 C 313.800781 98.472656 315.515625 96.90625 317.03125 95.195312 C 317.246094 94.953125 317.460938 94.707031 317.671875 94.457031 C 318.035156 94.027344 318.675781 93.972656 319.105469 94.335938 C 319.535156 94.699219 319.589844 95.339844 319.226562 95.769531 C 319.007812 96.03125 318.78125 96.292969 318.554688 96.554688 C 316.941406 98.363281 315.121094 100.027344 313.144531 101.496094 C 312.960938 101.632812 312.75 101.699219 312.539062 101.699219 Z M 276.257812 100.910156 C 275.871094 100.910156 275.5 100.691406 275.332031 100.3125 C 274.554688 98.613281 274.164062 96.714844 274.164062 94.65625 C 274.164062 93.660156 274.238281 92.6875 274.382812 91.761719 C 274.472656 91.207031 274.996094 90.828125 275.546875 90.917969 C 276.105469 91.007812 276.480469 91.527344 276.390625 92.082031 C 276.261719 92.898438 276.195312 93.765625 276.195312 94.65625 C 276.195312 96.417969 276.527344 98.039062 277.179688 99.46875 C 277.414062 99.980469 277.183594 100.585938 276.675781 100.816406 C 276.542969 100.875 276.394531 100.90625 276.257812 100.90625 Z M 296.210938 94.304688 C 295.691406 94.304688 295.25 93.914062 295.199219 93.386719 C 294.929688 90.5625 294.058594 88.21875 292.605469 86.421875 C 292.25 85.984375 292.320312 85.34375 292.757812 84.992188 C 293.195312 84.636719 293.835938 84.707031 294.1875 85.144531 C 295.894531 87.257812 296.917969 89.964844 297.226562 93.191406 C 297.28125 93.753906 296.871094 94.246094 296.308594 94.300781 C 296.277344 94.300781 296.246094 94.304688 296.210938 94.304688 Z M 322.929688 89.363281 C 322.777344 89.363281 322.621094 89.332031 322.472656 89.257812 C 321.972656 89.003906 321.769531 88.390625 322.023438 87.890625 C 323.234375 85.484375 324.105469 82.996094 324.617188 80.484375 C 324.726562 79.933594 325.265625 79.578125 325.816406 79.691406 C 326.367188 79.804688 326.722656 80.339844 326.609375 80.890625 C 326.0625 83.578125 325.132812 86.242188 323.839844 88.804688 C 323.660156 89.160156 323.304688 89.363281 322.929688 89.363281 Z M 278.964844 85.804688 C 278.695312 85.804688 278.421875 85.695312 278.222656 85.484375 C 277.839844 85.070312 277.859375 84.429688 278.269531 84.042969 C 280.328125 82.117188 282.988281 81.058594 285.761719 81.058594 C 286 81.058594 286.234375 81.0625 286.472656 81.082031 C 287.03125 81.117188 287.457031 81.601562 287.417969 82.164062 C 287.382812 82.722656 286.898438 83.152344 286.335938 83.109375 C 283.890625 82.945312 281.484375 83.820312 279.660156 85.527344 C 279.464844 85.710938 279.214844 85.800781 278.964844 85.800781 Z M 326.027344 73.609375 C 325.515625 73.609375 325.074219 73.226562 325.015625 72.703125 C 324.734375 70.078125 324.023438 67.570312 322.902344 65.253906 C 322.65625 64.746094 322.867188 64.136719 323.371094 63.894531 C 323.878906 63.648438 324.488281 63.859375 324.730469 64.363281 C 325.960938 66.894531 326.734375 69.628906 327.039062 72.484375 C 327.101562 73.046875 326.695312 73.546875 326.140625 73.605469 C 326.101562 73.609375 326.0625 73.609375 326.03125 73.609375 Z M 319.082031 59.257812 C 318.824219 59.257812 318.566406 59.160156 318.367188 58.964844 C 316.578125 57.203125 314.453125 55.65625 312.046875 54.371094 C 311.550781 54.105469 311.363281 53.488281 311.628906 52.996094 C 311.894531 52.5 312.511719 52.3125 313.007812 52.578125 C 315.582031 53.957031 317.867188 55.621094 319.792969 57.519531 C 320.195312 57.910156 320.199219 58.554688 319.804688 58.957031 C 319.605469 59.160156 319.34375 59.257812 319.078125 59.257812 Z M 304.980469 51.507812 C 304.886719 51.507812 304.796875 51.492188 304.707031 51.46875 C 303.199219 51.046875 301.605469 50.691406 299.96875 50.414062 C 299.414062 50.320312 299.042969 49.792969 299.136719 49.242188 C 299.234375 48.6875 299.753906 48.316406 300.3125 48.410156 C 302.019531 48.703125 303.679688 49.070312 305.253906 49.511719 C 305.796875 49.664062 306.113281 50.226562 305.960938 50.765625 C 305.835938 51.21875 305.425781 51.511719 304.980469 51.511719 Z M 304.980469 51.507812 " fill-opacity="1" fill-rule="nonzero"/><g clip-path="url(#e45c90cd8f)"><g mask="url(#aeae6c0429)"><g transform="matrix(1, 0, 0, 1, 270, 17)"><g clip-path="url(#45a3b00327)"><g clip-path="url(#6612b20ccb)"><path fill="#273755" d="M 14.695312 16.488281 C 17.023438 9.105469 16.058594 2.21875 12.542969 1.113281 C 9.03125 0.00390625 4.292969 5.089844 1.964844 12.472656 C -0.363281 19.859375 0.597656 26.742188 4.113281 27.847656 C 7.628906 28.957031 12.367188 23.871094 14.695312 16.488281 Z M 14.695312 16.488281 " fill-opacity="1" fill-rule="nonzero"/></g></g></g></g></g><g mask="url(#21a8dee867)"><g transform="matrix(1, 0, 0, 1, 267, 34)"><g clip-path="url(#d93ab90d4e)"><g clip-path="url(#2045e3dce9)"><path fill="#273755" d="M 16.738281 18.734375 C 15.28125 18.734375 13.792969 18.574219 12.3125 18.257812 C 8.679688 17.480469 5.464844 15.84375 3.25 13.660156 C 1.058594 11.496094 0.121094 9.050781 0.609375 6.769531 C 1.398438 3.082031 5.800781 0.605469 11.566406 0.605469 C 13.019531 0.605469 14.507812 0.765625 15.992188 1.085938 C 19.621094 1.859375 22.839844 3.496094 25.050781 5.679688 C 27.242188 7.847656 28.179688 10.289062 27.691406 12.570312 C 26.902344 16.253906 22.5 18.730469 16.738281 18.730469 Z M 16.738281 18.734375 " fill-opacity="1" fill-rule="nonzero"/><path fill="#273755" d="M 11.566406 0.4375 L 11.566406 0.777344 C 13.011719 0.777344 14.484375 0.9375 15.957031 1.25 C 23.332031 2.832031 28.523438 7.894531 27.53125 12.535156 C 26.757812 16.140625 22.417969 18.566406 16.738281 18.566406 C 15.296875 18.566406 13.820312 18.40625 12.347656 18.089844 C 8.75 17.320312 5.558594 15.703125 3.375 13.539062 C 1.222656 11.417969 0.300781 9.023438 0.78125 6.804688 C 1.550781 3.199219 5.890625 0.777344 11.570312 0.777344 L 11.570312 0.4375 M 11.570312 0.4375 C 5.890625 0.4375 1.273438 2.875 0.445312 6.734375 C -0.585938 11.566406 4.710938 16.800781 12.28125 18.421875 C 13.808594 18.746094 15.308594 18.902344 16.742188 18.902344 C 22.421875 18.902344 27.039062 16.464844 27.867188 12.605469 C 28.898438 7.773438 23.601562 2.539062 16.03125 0.917969 C 14.503906 0.59375 13.003906 0.4375 11.570312 0.4375 Z M 11.570312 0.4375 " fill-opacity="1" fill-rule="nonzero"/></g></g></g></g><path fill="#273755" d="M 294.835938 46.601562 C 295.871094 41.765625 290.574219 36.535156 283.003906 34.914062 C 275.433594 33.292969 268.457031 35.894531 267.421875 40.726562 C 266.386719 45.558594 271.683594 50.792969 279.253906 52.414062 C 286.824219 54.035156 293.800781 51.433594 294.835938 46.601562 Z M 294.835938 46.601562 " fill-opacity="1" fill-rule="nonzero"/><g mask="url(#397d53aa00)"><g transform="matrix(1, 0, 0, 1, 271, 25)"><g clip-path="url(#fee593422e)"><g clip-path="url(#f1cbf999dc)"><path fill="#273755" d="M 16.628906 16.308594 C 22.691406 11.492188 25.746094 5.25 23.453125 2.363281 C 21.160156 -0.523438 14.386719 1.042969 8.328125 5.859375 C 2.265625 10.675781 -0.789062 16.917969 1.503906 19.804688 C 3.796875 22.691406 10.570312 21.125 16.628906 16.308594 Z M 16.628906 16.308594 " fill-opacity="1" fill-rule="nonzero"/></g></g></g></g><path fill="#273755" d="M 214.714844 317.457031 L 123.441406 317.457031 C 122.878906 317.457031 122.425781 317 122.425781 316.4375 C 122.425781 315.875 122.878906 315.421875 123.441406 315.421875 L 214.714844 315.421875 C 215.277344 315.421875 215.730469 315.875 215.730469 316.4375 C 215.730469 317 215.277344 317.457031 214.714844 317.457031 Z M 214.714844 317.457031 " fill-opacity="1" fill-rule="nonzero"/><path fill="#273755" d="M 214.714844 324.757812 L 173.726562 324.757812 C 173.160156 324.757812 172.707031 324.304688 172.707031 323.742188 C 172.707031 323.179688 173.160156 322.726562 173.726562 322.726562 L 214.714844 322.726562 C 215.277344 322.726562 215.730469 323.179688 215.730469 323.742188 C 215.730469 324.304688 215.277344 324.757812 214.714844 324.757812 Z M 214.714844 324.757812 " fill-opacity="1" fill-rule="nonzero"/><path fill="#273755" d="M 207.511719 167.199219 L 163.101562 167.199219 C 162.539062 167.199219 162.085938 166.742188 162.085938 166.179688 C 162.085938 165.617188 162.539062 165.164062 163.101562 165.164062 L 207.511719 165.164062 C 208.074219 165.164062 208.527344 165.617188 208.527344 166.179688 C 208.527344 166.742188 208.074219 167.199219 207.511719 167.199219 Z M 207.511719 167.199219 " fill-opacity="1" fill-rule="nonzero"/><path fill="#273755" d="M 185.304688 179.980469 L 163.097656 179.980469 C 162.535156 179.980469 162.082031 179.527344 162.082031 178.964844 C 162.082031 178.402344 162.535156 177.945312 163.097656 177.945312 L 185.304688 177.945312 C 185.867188 177.945312 186.320312 178.402344 186.320312 178.964844 C 186.320312 179.527344 185.867188 179.980469 185.304688 179.980469 Z M 185.304688 179.980469 " fill-opacity="1" fill-rule="nonzero"/><path fill="#273755" d="M 293.183594 189.019531 L 278.429688 189.019531 C 277.867188 189.019531 277.414062 188.566406 277.414062 188.003906 C 277.414062 187.441406 277.867188 186.988281 278.429688 186.988281 L 293.183594 186.988281 C 293.746094 186.988281 294.199219 187.441406 294.199219 188.003906 C 294.199219 188.566406 293.746094 189.019531 293.183594 189.019531 Z M 293.183594 189.019531 " fill-opacity="1" fill-rule="nonzero"/><path fill="#273755" d="M 135.386719 151.957031 C 135.261719 151.957031 135.136719 151.933594 135.011719 151.886719 C 134.488281 151.679688 134.234375 151.089844 134.441406 150.5625 L 165.808594 71.523438 C 166.015625 71 166.605469 70.746094 167.128906 70.953125 C 167.652344 71.160156 167.90625 71.75 167.699219 72.273438 L 136.335938 151.316406 C 136.175781 151.714844 135.792969 151.957031 135.386719 151.957031 Z M 135.386719 151.957031 " fill-opacity="1" fill-rule="nonzero"/><path fill="#273755" d="M 230.382812 138.890625 C 229.976562 138.890625 229.589844 138.644531 229.433594 138.242188 L 215.980469 103.542969 C 215.777344 103.019531 216.039062 102.429688 216.5625 102.226562 C 217.082031 102.023438 217.671875 102.285156 217.875 102.804688 L 231.328125 137.503906 C 231.53125 138.027344 231.269531 138.617188 230.75 138.820312 C 230.625 138.867188 230.503906 138.886719 230.382812 138.886719 Z M 230.382812 138.890625 " fill-opacity="1" fill-rule="nonzero"/><path fill="#273755" d="M 106.683594 212.753906 L 79.839844 212.753906 C 79.277344 212.753906 78.824219 212.300781 78.824219 211.738281 C 78.824219 211.171875 79.277344 210.71875 79.839844 210.71875 L 106.683594 210.71875 C 107.246094 210.71875 107.703125 211.171875 107.703125 211.738281 C 107.703125 212.300781 107.246094 212.753906 106.683594 212.753906 Z M 106.683594 212.753906 " fill-opacity="1" fill-rule="nonzero"/></svg>