<svg xmlns="http://www.w3.org/2000/svg" xmlns:xlink="http://www.w3.org/1999/xlink" width="500" zoomAndPan="magnify" viewBox="0 0 375 374.999991" height="500" preserveAspectRatio="xMidYMid meet" version="1.0"><path fill="#f1f2eb" d="M 106.035156 87.046875 L 3.597656 183.816406 C 1.070312 186.203125 0.132812 189.832031 1.183594 193.144531 L 11.445312 225.453125 C 12.117188 227.566406 13.417969 229.425781 15.179688 230.777344 L 118.34375 310.050781 C 121.539062 312.507812 126.09375 312.054688 128.742188 309.015625 L 130.960938 306.46875 C 133.441406 303.625 137.542969 302.851562 140.890625 304.597656 L 156.035156 312.5 C 158.414062 313.742188 161.15625 314.101562 163.773438 313.519531 L 300.523438 283.039062 C 303.875 282.292969 305.96875 278.953125 305.183594 275.609375 L 303.542969 268.644531 C 302.679688 264.972656 303.847656 261.125 306.605469 258.554688 L 363.070312 205.910156 C 366.574219 202.640625 366.707031 197.132812 363.367188 193.699219 L 254.515625 81.796875 C 251.539062 78.738281 246.675781 78.578125 243.503906 81.433594 L 227.15625 96.152344 C 223.894531 99.085938 219.0625 99.40625 215.441406 96.929688 C 209.609375 92.941406 197.433594 87.882812 182.625 87.882812 C 166.089844 87.882812 153.53125 95.054688 145.988281 99.679688 C 142.417969 101.871094 137.886719 101.71875 134.453125 99.3125 L 115.945312 86.324219 C 112.890625 84.183594 108.75 84.484375 106.035156 87.046875 Z M 106.035156 87.046875 " fill-opacity="1" fill-rule="nonzero"/><path fill="#0fb1ea" d="M 110.695312 93.921875 L 20.121094 217.5 L 127.554688 298.835938 L 214.914062 172.824219 Z M 110.695312 93.921875 " fill-opacity="1" fill-rule="nonzero"/><path fill="#094459" d="M 110.695312 93.921875 L 10.472656 191.59375 L 20.121094 217.5 Z M 110.695312 93.921875 " fill-opacity="1" fill-rule="nonzero"/><path fill="#094459" d="M 173.886719 169.109375 C 173.316406 169.109375 172.742188 168.929688 172.257812 168.554688 C 171.082031 167.65625 170.859375 165.96875 171.757812 164.792969 C 171.992188 164.488281 194.898438 134.316406 192.25 114.761719 C 191.625 110.136719 189.636719 106.613281 186.171875 103.988281 C 182.703125 101.363281 178.761719 100.417969 174.167969 101.070312 C 154.652344 103.871094 131.972656 134.179688 131.746094 134.488281 C 130.863281 135.679688 129.183594 135.929688 127.996094 135.042969 C 126.804688 134.160156 126.558594 132.480469 127.441406 131.292969 C 128.417969 129.96875 151.699219 98.875 173.40625 95.761719 C 179.417969 94.894531 184.808594 96.226562 189.40625 99.707031 C 194.003906 103.191406 196.753906 108.015625 197.566406 114.046875 C 200.507812 135.816406 177.015625 166.753906 176.015625 168.058594 C 175.488281 168.746094 174.691406 169.109375 173.886719 169.109375 Z M 173.886719 169.109375 " fill-opacity="1" fill-rule="nonzero"/><path fill="#f7ce26" d="M 124.03125 152.945312 L 161.140625 301.621094 L 292.328125 270.929688 L 251.292969 123.171875 Z M 124.03125 152.945312 " fill-opacity="1" fill-rule="nonzero"/><path fill="#094459" d="M 124.03125 152.945312 L 134.195312 292.570312 L 161.140625 301.621094 Z M 124.03125 152.945312 " fill-opacity="1" fill-rule="nonzero"/><path fill="#094459" d="M 166.0625 165.988281 C 164.851562 165.988281 163.757812 165.167969 163.457031 163.941406 C 163.066406 162.34375 154.042969 124.550781 165.523438 105.859375 C 168.707031 100.679688 173.167969 97.386719 178.785156 96.074219 C 184.394531 94.753906 189.859375 95.726562 195.023438 98.957031 C 213.632812 110.605469 222.402344 148.453125 222.769531 150.058594 C 223.09375 151.503906 222.1875 152.9375 220.746094 153.265625 C 219.289062 153.605469 217.859375 152.691406 217.535156 151.246094 C 217.453125 150.875 208.898438 113.964844 192.171875 103.503906 C 188.21875 101.027344 184.234375 100.304688 180.003906 101.296875 C 175.773438 102.285156 172.53125 104.695312 170.089844 108.667969 C 159.769531 125.472656 168.578125 162.300781 168.667969 162.667969 C 169.019531 164.109375 168.136719 165.5625 166.699219 165.914062 C 166.484375 165.964844 166.269531 165.988281 166.0625 165.988281 Z M 166.0625 165.988281 " fill-opacity="1" fill-rule="nonzero"/><path fill="#f07423" d="M 147.265625 175.097656 L 249.261719 289.425781 L 351.105469 201.1875 L 246.0625 89.5 Z M 147.265625 175.097656 " fill-opacity="1" fill-rule="nonzero"/><path fill="#094459" d="M 147.265625 175.097656 L 221.199219 293.957031 L 249.261719 289.425781 Z M 147.265625 175.097656 " fill-opacity="1" fill-rule="nonzero"/><path fill="#094459" d="M 189.289062 167.386719 C 188.546875 167.386719 187.808594 167.082031 187.277344 166.480469 C 186.1875 165.246094 160.625 135.996094 162.09375 114.109375 C 162.5 108.042969 164.917969 103.050781 169.277344 99.269531 C 173.636719 95.492188 178.929688 93.804688 184.996094 94.265625 C 206.890625 95.910156 232.25 125.328125 233.316406 126.582031 C 234.28125 127.707031 234.148438 129.398438 233.023438 130.359375 C 231.898438 131.324219 230.203125 131.191406 229.242188 130.066406 C 228.996094 129.777344 204.257812 101.089844 184.585938 99.613281 C 179.960938 99.265625 176.078125 100.480469 172.789062 103.328125 C 169.503906 106.171875 167.753906 109.816406 167.441406 114.464844 C 166.125 134.148438 191.050781 162.644531 191.300781 162.929688 C 192.28125 164.039062 192.175781 165.734375 191.066406 166.71875 C 190.554688 167.167969 189.921875 167.386719 189.289062 167.386719 Z M 189.289062 167.386719 " fill-opacity="1" fill-rule="nonzero"/></svg>